<mxfile host="app.diagrams.net" agent="Mozilla/5.0 (X11; Linux x86_64) AppleWebKit/537.36 (KHTML, like Gecko) Chrome/130.0.0.0 Safari/537.36" version="24.9.1">
  <diagram name="Страница — 1" id="kMz18JS1DeZjh2sQaSF_">
    <mxGraphModel dx="2816" dy="857" grid="1" gridSize="10" guides="1" tooltips="1" connect="1" arrows="1" fold="1" page="1" pageScale="1" pageWidth="1169" pageHeight="827" math="0" shadow="0">
      <root>
        <mxCell id="0" />
        <mxCell id="1" parent="0" />
        <mxCell id="dX3muHz-K_udYelPr-R4-28" value="" style="rounded=1;whiteSpace=wrap;html=1;" vertex="1" parent="1">
          <mxGeometry x="90" y="30" width="1190" height="670" as="geometry" />
        </mxCell>
        <mxCell id="dX3muHz-K_udYelPr-R4-15" value="" style="rounded=1;whiteSpace=wrap;html=1;" vertex="1" parent="1">
          <mxGeometry x="960" y="287" width="270" height="170" as="geometry" />
        </mxCell>
        <mxCell id="dX3muHz-K_udYelPr-R4-2" value="&lt;font style=&quot;font-size: 20px;&quot;&gt;Backend&lt;/font&gt;" style="rounded=0;whiteSpace=wrap;html=1;" vertex="1" parent="1">
          <mxGeometry x="400" y="327" width="170" height="90" as="geometry" />
        </mxCell>
        <mxCell id="dX3muHz-K_udYelPr-R4-6" value="&lt;font style=&quot;font-size: 20px;&quot;&gt;LLM&lt;/font&gt;" style="rounded=0;whiteSpace=wrap;html=1;" vertex="1" parent="1">
          <mxGeometry x="1110" y="357" width="100" height="60" as="geometry" />
        </mxCell>
        <mxCell id="dX3muHz-K_udYelPr-R4-7" value="&lt;font style=&quot;font-size: 20px;&quot;&gt;RabbitMQ&lt;/font&gt;" style="shape=parallelogram;perimeter=parallelogramPerimeter;whiteSpace=wrap;html=1;fixedSize=1;" vertex="1" parent="1">
          <mxGeometry x="690" y="330" width="150" height="84" as="geometry" />
        </mxCell>
        <mxCell id="dX3muHz-K_udYelPr-R4-8" value="&lt;font style=&quot;font-size: 20px;&quot;&gt;Postgres&lt;/font&gt;" style="shape=cylinder3;whiteSpace=wrap;html=1;boundedLbl=1;backgroundOutline=1;size=15;" vertex="1" parent="1">
          <mxGeometry x="435" y="60" width="100" height="130" as="geometry" />
        </mxCell>
        <mxCell id="dX3muHz-K_udYelPr-R4-9" value="&lt;font style=&quot;font-size: 20px;&quot;&gt;S3&lt;/font&gt;" style="shape=cylinder3;whiteSpace=wrap;html=1;boundedLbl=1;backgroundOutline=1;size=15;" vertex="1" parent="1">
          <mxGeometry x="435" y="530" width="100" height="130" as="geometry" />
        </mxCell>
        <mxCell id="dX3muHz-K_udYelPr-R4-11" value="" style="endArrow=classic;startArrow=classic;html=1;rounded=0;entryX=0.5;entryY=1;entryDx=0;entryDy=0;entryPerimeter=0;" edge="1" parent="1" source="dX3muHz-K_udYelPr-R4-2" target="dX3muHz-K_udYelPr-R4-8">
          <mxGeometry width="50" height="50" relative="1" as="geometry">
            <mxPoint x="560" y="430" as="sourcePoint" />
            <mxPoint x="500" y="210" as="targetPoint" />
          </mxGeometry>
        </mxCell>
        <mxCell id="dX3muHz-K_udYelPr-R4-12" value="" style="endArrow=classic;startArrow=classic;html=1;rounded=0;entryX=0;entryY=0.5;entryDx=0;entryDy=0;exitX=1;exitY=0.5;exitDx=0;exitDy=0;" edge="1" parent="1" source="dX3muHz-K_udYelPr-R4-2" target="dX3muHz-K_udYelPr-R4-7">
          <mxGeometry width="50" height="50" relative="1" as="geometry">
            <mxPoint x="650" y="457" as="sourcePoint" />
            <mxPoint x="650" y="320" as="targetPoint" />
          </mxGeometry>
        </mxCell>
        <mxCell id="dX3muHz-K_udYelPr-R4-13" value="" style="endArrow=classic;startArrow=classic;html=1;rounded=0;" edge="1" parent="1" source="dX3muHz-K_udYelPr-R4-7" target="dX3muHz-K_udYelPr-R4-15">
          <mxGeometry width="50" height="50" relative="1" as="geometry">
            <mxPoint x="890" y="310" as="sourcePoint" />
            <mxPoint x="910" y="300" as="targetPoint" />
          </mxGeometry>
        </mxCell>
        <mxCell id="dX3muHz-K_udYelPr-R4-14" value="" style="endArrow=classic;startArrow=classic;html=1;rounded=0;exitX=0.5;exitY=0;exitDx=0;exitDy=0;exitPerimeter=0;" edge="1" parent="1" source="dX3muHz-K_udYelPr-R4-9" target="dX3muHz-K_udYelPr-R4-2">
          <mxGeometry width="50" height="50" relative="1" as="geometry">
            <mxPoint x="484.5" y="551" as="sourcePoint" />
            <mxPoint x="460" y="460" as="targetPoint" />
          </mxGeometry>
        </mxCell>
        <mxCell id="dX3muHz-K_udYelPr-R4-17" value="&lt;span style=&quot;font-size: 20px;&quot;&gt;ML Service&lt;/span&gt;" style="text;html=1;align=center;verticalAlign=middle;whiteSpace=wrap;rounded=0;" vertex="1" parent="1">
          <mxGeometry x="1020" y="294" width="150" height="30" as="geometry" />
        </mxCell>
        <mxCell id="dX3muHz-K_udYelPr-R4-18" value="&lt;font style=&quot;font-size: 20px;&quot;&gt;RAG&lt;/font&gt;" style="rounded=0;whiteSpace=wrap;html=1;" vertex="1" parent="1">
          <mxGeometry x="980" y="357" width="100" height="60" as="geometry" />
        </mxCell>
        <mxCell id="dX3muHz-K_udYelPr-R4-20" value="&lt;font style=&quot;font-size: 20px;&quot;&gt;NGINX&lt;/font&gt;" style="rounded=0;whiteSpace=wrap;html=1;" vertex="1" parent="1">
          <mxGeometry x="140" y="327" width="170" height="90" as="geometry" />
        </mxCell>
        <mxCell id="dX3muHz-K_udYelPr-R4-24" value="&lt;font style=&quot;font-size: 17px;&quot;&gt;User&lt;/font&gt;" style="shape=umlActor;verticalLabelPosition=bottom;verticalAlign=top;html=1;outlineConnect=0;" vertex="1" parent="1">
          <mxGeometry x="-40" y="320" width="50" height="104" as="geometry" />
        </mxCell>
        <mxCell id="dX3muHz-K_udYelPr-R4-25" value="" style="endArrow=classic;startArrow=classic;html=1;rounded=0;entryX=0;entryY=0.5;entryDx=0;entryDy=0;" edge="1" parent="1" source="dX3muHz-K_udYelPr-R4-20" target="dX3muHz-K_udYelPr-R4-2">
          <mxGeometry width="50" height="50" relative="1" as="geometry">
            <mxPoint x="250" y="440" as="sourcePoint" />
            <mxPoint x="380" y="440" as="targetPoint" />
          </mxGeometry>
        </mxCell>
        <mxCell id="dX3muHz-K_udYelPr-R4-27" value="" style="endArrow=classic;startArrow=classic;html=1;rounded=0;" edge="1" parent="1" source="dX3muHz-K_udYelPr-R4-24" target="dX3muHz-K_udYelPr-R4-20">
          <mxGeometry width="50" height="50" relative="1" as="geometry">
            <mxPoint x="50" y="400" as="sourcePoint" />
            <mxPoint x="100" y="361.66" as="targetPoint" />
          </mxGeometry>
        </mxCell>
        <mxCell id="dX3muHz-K_udYelPr-R4-29" value="&lt;font style=&quot;font-size: 20px;&quot;&gt;Docker Compose&lt;/font&gt;" style="text;html=1;align=center;verticalAlign=middle;whiteSpace=wrap;rounded=0;" vertex="1" parent="1">
          <mxGeometry x="949" y="60" width="220" height="30" as="geometry" />
        </mxCell>
        <mxCell id="dX3muHz-K_udYelPr-R4-30" value="" style="endArrow=classic;startArrow=classic;html=1;rounded=0;entryX=0.97;entryY=0.573;entryDx=0;entryDy=0;entryPerimeter=0;" edge="1" parent="1" source="dX3muHz-K_udYelPr-R4-15" target="dX3muHz-K_udYelPr-R4-9">
          <mxGeometry width="50" height="50" relative="1" as="geometry">
            <mxPoint x="720" y="440" as="sourcePoint" />
            <mxPoint x="560" y="600" as="targetPoint" />
          </mxGeometry>
        </mxCell>
      </root>
    </mxGraphModel>
  </diagram>
</mxfile>
